<svg id="visual" viewBox="0 0 900 450" width="900" height="450" xmlns="http://www.w3.org/2000/svg" xmlns:xlink="http://www.w3.org/1999/xlink" version="1.1"><rect x="0" y="0" width="900" height="450" fill="#ffffff"></rect><path d="M0 398L30 403.3C60 408.7 120 419.3 180 394C240 368.7 300 307.3 360 306.5C420 305.7 480 365.3 540 388.7C600 412 660 399 720 400.8C780 402.7 840 419.3 870 427.7L900 436L900 451L870 451C840 451 780 451 720 451C660 451 600 451 540 451C480 451 420 451 360 451C300 451 240 451 180 451C120 451 60 451 30 451L0 451Z" fill="#21409A" stroke-linecap="round" stroke-linejoin="miter"></path></svg>