<svg width="50" height="35" viewBox="0 0 50 35" fill="none" xmlns="http://www.w3.org/2000/svg">
<path d="M25.335 14.5335L25.4773 32.6226C24.6114 31.467 23.6633 30.6569 22.6763 30.1181C21.3139 29.3743 19.911 29.166 18.6109 29.244C16.0318 29.3988 13.8226 30.6829 12.997 31.1964C12.6268 31.4264 12.452 31.4361 12.4063 31.4308C12.4062 31.4308 12.4059 31.431 12.4056 31.4312C12.4034 31.4329 12.3971 31.4379 12.3748 31.3933C12.3398 31.3232 12.3172 31.2115 12.31 31.0875C12.3067 31.0309 12.3072 30.9815 12.3085 30.9471C12.3091 30.9301 12.3099 30.9172 12.3104 30.9097L12.3108 30.9036L12.3109 30.9031L12.3109 30.9026L12.3109 30.9026L12.311 30.9023L12.311 30.9023L12.3134 30.8776L12.3132 30.8507L12.1732 13.0495C14.9432 10.9399 17.282 10.5531 19.1168 10.5487C21.3287 10.5434 22.8873 11.5531 23.9061 12.5808C24.4167 13.0958 24.7878 13.6122 25.0308 13.9991C25.152 14.1922 25.2405 14.3518 25.2979 14.4614C25.3122 14.4887 25.3246 14.5128 25.335 14.5335ZM27.0655 32.6092L26.9232 14.5201C26.9333 14.4992 26.9453 14.4749 26.9592 14.4474C27.0148 14.337 27.1009 14.1759 27.219 13.981C27.4558 13.5903 27.8188 13.0681 28.3212 12.5452C29.3238 11.5015 30.8662 10.4674 33.078 10.438C34.9126 10.4135 37.2572 10.7635 40.06 12.8292L40.2001 30.6304L40.2003 30.6573L27.0655 32.6092ZM40.2032 30.682L40.2032 30.6823L40.2032 30.6823L40.2032 30.6827L40.2033 30.6833L40.2039 30.6894C40.2045 30.6969 40.2055 30.7097 40.2064 30.7267C40.2082 30.7611 40.2094 30.8105 40.207 30.8672C40.2018 30.9912 40.1809 31.1033 40.1471 31.1739C40.1255 31.2188 40.1191 31.214 40.1169 31.2123C40.1166 31.212 40.1163 31.2118 40.1162 31.2119C40.0706 31.2179 39.8957 31.211 39.522 30.9868C39.522 30.9868 39.522 30.9868 39.5219 30.9868L39.2647 31.4155L40.2032 30.682Z" fill="white" stroke="black"/>
<path d="M38.5495 9.51981C41.6168 5.08832 46.7702 -1.38371 42.8449 8.18004C51.3693 3.23134 48.2917 8.60502 45.6873 11.9104C42.3161 14.8014 35.1769 18.5658 33.5901 10.4956C32.0011 8.6132 37.2961 4.44974 40.1422 2.60331L38.5495 9.51981Z" fill="#E85D4A"/>
<path d="M32.0546 22.9842C34.317 19.7157 38.1179 14.9421 35.2228 21.996C41.5101 18.346 39.2401 22.3095 37.3193 24.7474C34.8327 26.8797 29.5671 29.6562 28.3967 23.7039C27.2247 22.3155 31.1301 19.2447 33.2293 17.8828L32.0546 22.9842Z" fill="#E85D4A"/>
<path d="M14.3139 10.118C9.134 5.66717 0.743096 -0.61742 8.61845 9.85104C-3.41758 6.5137 2.0766 12.1164 6.3282 15.335C11.3873 17.7997 21.3458 20.1286 20.7068 9.72607C22.0521 6.90934 14.2269 3.50051 10.1461 2.14819L14.3139 10.118Z" fill="#21409A"/>
<path d="M16.8408 23.5597C13.8108 20.9562 8.90241 17.2799 13.5092 23.4036C6.46857 21.4514 9.68246 24.7287 12.1695 26.6115C15.1289 28.0533 20.9542 29.4156 20.5804 23.3305C21.3674 21.6828 16.7899 19.6888 14.4028 18.8977L16.8408 23.5597Z" fill="#21409A"/>
</svg>
